<svg xmlns="http://www.w3.org/2000/svg" xmlns:xlink="http://www.w3.org/1999/xlink" width="18" height="18" version="1.1" viewBox="0 0 18 18"><title>element/magnifying-glass</title><desc>Created with Sketch.</desc><defs><path id="path-1" d="M11.5778798,13.6992002 C8.67959906,15.6154803 4.73904855,15.2974548 2.18671754,12.7451238 C-0.728905847,9.82950045 -0.728905847,5.10234093 2.18671754,2.18671754 C5.10234093,-0.728905847 9.82950045,-0.728905847 12.7451238,2.18671754 C15.2974548,4.73904855 15.6154803,8.67959906 13.6992002,11.5778798 L17.5802698,15.4589495 L15.4589495,17.5802698 L11.5778798,13.6992002 Z M10.6238035,10.6238035 C12.367854,8.87975298 12.367854,6.0520884 10.6238035,4.30803789 C8.87975298,2.56398737 6.0520884,2.56398737 4.30803789,4.30803789 C2.56398737,6.0520884 2.56398737,8.87975298 4.30803789,10.6238035 C6.0520884,12.367854 8.87975298,12.367854 10.6238035,10.6238035 Z"/></defs><g id="Proofs" fill="none" fill-rule="evenodd" stroke="none" stroke-width="1"><g id="Blog-Theme-2019_Index-Page_Desktop" transform="translate(-1834.000000, -148.000000)"><g id="Search" transform="translate(1816.000000, 130.000000)"><g id="element/magnifying-glass" transform="translate(15.000000, 15.000000)"><g id="Group" transform="translate(3.000000, 3.000000)"><mask id="mask-2" fill="#fff"><use xlink:href="#path-1"/></mask><use id="icon-search" fill="#9CA393" xlink:href="#path-1"/></g></g></g></g></g></svg>